<svg width="70" height="76" viewBox="0 0 70 76" xmlns="http://www.w3.org/2000/svg">
  <title>Shape Copy</title>
  <path d="M35 0l-6.114 11.402c-.694 1.24-1.937 1.124-3.18.432L21.28 9.542l3.3 17.513c.693 3.2-1.533 3.2-2.63 1.816l-7.725-8.646-1.254 4.39c-.143.578-.78 1.183-1.733 1.04L1.47 23.6l2.566 9.326c.55 2.075.977 2.935-.555 3.482L0 38.044 16.813 51.7c.665.517 1 1.446.765 2.288l-1.472 4.83c5.79-.67 10.976-1.673 16.768-2.29.51-.056 1.367.788 1.363 1.38L33.47 75.6h2.815l-.443-17.653c-.004-.593.773-1.475 1.284-1.42 5.792.618 10.98 1.622 16.768 2.29l-1.472-4.83c-.236-.84.1-1.77.765-2.286L70 38.045l-3.48-1.636c-1.533-.547-1.105-1.407-.556-3.482L68.53 23.6l-9.767 2.053c-.954.144-1.59-.46-1.734-1.038l-1.255-4.39-7.724 8.646c-1.097 1.384-3.323 1.384-2.63-1.815l3.3-17.513-4.426 2.292c-1.243.692-2.486.807-3.18-.432" fill="#FFFFFF" fill-rule="evenodd"/>
</svg>
