<svg width="200" height="19" xmlns="http://www.w3.org/2000/svg"><g fill="#FFF" fill-rule="evenodd"><path d="M22.822 12.885h-1.41c-.692 0-.639-.054-.479-.48.612-1.595.878-2.26 1.303-3.218.266.612.772 1.942 1.25 3.086.24.585.16.612-.664.612M6.594 8.868c-1.277 0-1.277-.054-1.277-.905V2.43c0-1.224.027-1.304 1.41-1.304 2.315 0 3.671 1.836 3.671 3.938 0 2.527-1.197 3.804-3.804 3.804m23.038 8.14l-.266-.027c-.958-.106-1.144-.266-1.596-1.356L25.216 9.32c-.958-2.341-1.144-2.9-1.25-3.14-.107-.212-.213-.345-.32-.345-.133 0-.16 0-.266.053-.16.293-1.09 1.064-1.755 1.25.053.347-.054.719-.373 1.464l-2.58 5.958c-.852 1.942-.931 2.208-1.89 2.368l-.462.077a3.61 3.61 0 0 1-1-.609c-1.25-1.037-2.58-3.299-4.709-6.89-.106-.16-.16-.372 0-.452 1.304-.532 3.192-1.756 3.192-4.203 0-1.916-.984-3.166-2.34-3.884C10.292.328 8.483.062 6.408.062c-2.181 0-4.442.08-6.118.24C.077.435.077.86.263 1.047l.692.08c1.25.133 1.277.452 1.277 3.005v9.737c0 2.82-.24 2.9-1.49 3.059l-.585.08c-.24.186-.16.665.053.771a78.532 78.532 0 0 1 7.13 0c.212-.106.239-.585.052-.771l-.585-.08c-1.25-.16-1.49-.24-1.49-3.06v-3.404c0-.559.027-.585.825-.585.878 0 1.17.106 1.65.904.638 1.037 1.383 2.5 2.101 3.618 1.623 2.474 3.006 3.511 5.56 3.511.93 0 1.436-.08 1.756-.16.006-.01.01-.023.016-.035.3-.011.637-.018.994-.018.719 0 1.384.027 2.261.08.213-.106.293-.612.107-.771l-.638-.08c-.56-.08-.639-.266-.293-1.197l.479-1.277c.213-.559.24-.559.771-.559h2.5c.72 0 .772 0 .958.56l.612 1.728c.187.505.027.612-.452.718l-.452.107c-.24.186-.186.691.08.771a40.67 40.67 0 0 1 2.66-.08c1.064 0 1.942.027 2.74.08.266-.053.292-.638.08-.771M35.058 14.693c0 1.756.08 2.155 1.064 2.262l.532.053c.213.16.16.665-.026.771a54.246 54.246 0 0 0-2.98-.08c-1.064 0-2.074.027-3.032.08-.186-.106-.24-.612-.027-.771l.532-.053c.985-.107 1.064-.506 1.064-2.262V9.16c0-1.755-.08-2.154-1.064-2.26l-.532-.054c-.213-.16-.16-.665.027-.771.958.053 1.968.08 3.032.08 1.011 0 2.022-.027 2.98-.08.186.106.24.611.026.771l-.532.053c-.984.107-1.064.506-1.064 2.261v5.533zM46.87 6.26c.213.56.399 1.623.452 2.714-.16.24-.559.292-.745.107-.505-1.544-1.436-2.288-2.713-2.288-1.117 0-1.836.665-1.836 1.596 0 1.064.984 1.622 2.128 2.101 1.81.745 3.538 1.783 3.538 4.044.027 2.42-2.208 3.538-4.788 3.538-1.543 0-2.793-.373-3.511-.958-.4-.745-.532-1.888-.48-3.006.134-.213.56-.292.746-.053.479 1.623 1.675 3.006 3.458 3.006 1.064 0 1.862-.612 1.862-1.596 0-1.25-.931-1.995-2.208-2.527-1.703-.692-3.325-1.783-3.325-3.698 0-2.208 1.888-3.458 4.575-3.458 1.277 0 2.155.293 2.847.479M54.345 10.703c0 .452.026.479.612.479h.984c1.463 0 1.703-.027 1.915-.825l.16-.638c.16-.16.612-.133.745.053-.027.612-.08 1.277-.08 1.942 0 .718.053 1.383.08 1.995-.133.186-.586.213-.745.053l-.16-.638c-.212-.798-.452-.825-1.915-.825h-.984c-.586 0-.612.027-.612.532v1.65c0 .798.053 1.516.292 1.808.24.267.852.4 2.501.4 2.155 0 2.607-.559 3.219-1.969.186-.08.558-.08.745.106-.24 1.118-.559 2.448-.798 2.953-1.676-.053-3.086-.08-4.523-.08h-2.846c-1.064 0-2.075.027-3.325.08-.187-.106-.24-.612-.027-.771l.825-.08c.984-.106 1.064-.479 1.064-2.235V9.16c0-1.755-.08-2.101-1.064-2.26l-.32-.054c-.212-.16-.16-.665.027-.772.745.054 1.756.08 2.82.08h4.283c1.17 0 2.234-.026 2.474-.08.08.32.213 1.57.292 2.767-.106.213-.558.24-.745.08-.16-.452-.319-.851-.478-1.118-.32-.532-1.011-.638-2.315-.638h-1.41c-.665 0-.691.08-.691 1.357v2.181zM66.954 14.268c0 1.596.08 2.58 1.916 2.58 2.82 0 4.016-2.26 4.016-5.028 0-3.005-1.968-4.735-4.415-4.735-1.49 0-1.517.107-1.517 1.277v5.906zm-2.873-4.921c0-1.65.08-2.076-1.01-2.288l-.267-.053c-.213-.08-.239-.692.054-.772a75.13 75.13 0 0 1 5.027-.16c1.942 0 3.512.24 4.629.64 2.288.824 3.591 2.739 3.591 5.213 0 2.314-1.144 4.017-3.165 5.054-1.224.639-2.82.878-4.735.878-1.171 0-2.474-.16-3.192-.16-.533 0-1.544.027-2.501.08-.186-.106-.24-.612-.027-.771l.532-.053c.984-.107 1.064-.506 1.064-2.262V9.347zM89.14 14.427c0 1.65.107 2.368 1.862 2.368 1.064 0 2.288-.692 2.288-2.155 0-1.835-1.357-2.633-3.033-2.633-1.064 0-1.117 0-1.117.399v2.021zm0-3.804c0 .48.053.48 1.09.48 1.118 0 2.262-.373 2.262-2.022 0-1.304-1.117-1.996-2.181-1.996-1.144 0-1.17.16-1.17.639v2.9zm-2.873-1.277c0-1.622.08-2.101-1.01-2.287l-.32-.054c-.213-.08-.24-.691.053-.77.931-.08 2.927-.16 5.161-.16 1.357 0 2.634.08 3.644.452 1.038.372 1.756 1.223 1.756 2.314 0 1.25-.878 1.995-2.208 2.341-.16.053-.133.186.027.213 1.543.32 3.033 1.09 3.033 3.086 0 1.356-.745 2.234-1.836 2.713-1.064.479-2.527.612-4.176.612-.932 0-1.89-.107-2.608-.107-1.064 0-2.075.027-3.032.08-.186-.106-.24-.612-.027-.771l.532-.08c.931-.133 1.011-.479 1.011-2.235V9.346zM106.644 17.008c.213.16.16.665-.026.771a61.35 61.35 0 0 0-6.252 0c-.186-.106-.239-.612-.027-.771l.666-.08c.984-.106 1.064-.479 1.064-2.235v-.532c0-.638-.24-1.276-.718-2.154l-2.022-3.592c-.639-1.117-.851-1.383-1.65-1.516l-.319-.053c-.186-.16-.186-.665.08-.771a47.653 47.653 0 0 0 5.533 0c.266.106.266.611.08.77l-.292.054c-.532.106-.745.186-.745.346 0 .16.106.452.372.984.612 1.224 1.383 2.58 1.915 3.591.48-.798.985-1.729 1.756-3.165.453-.825.665-1.25.665-1.383 0-.187-.133-.267-.558-.346l-.426-.08c-.266-.213-.266-.638 0-.771 1.01.053 1.543.08 2.181.08.639 0 1.277-.027 2.022-.08.213.186.213.585.053.77l-.478.107c-.905.213-1.198.453-2.129 1.942l-1.436 2.288c-.612.958-1.011 1.889-1.011 2.448v1.063c0 1.756.08 2.102 1.064 2.235l.638.08zM141.6.94c-1.224.266-1.623.825-2.607 3.006-2.022 4.496-3.751 8.14-5.241 11.865-.4.984-.612 1.702-.851 2.208-.08.053-.266.106-.452.106-.187 0-.373-.027-.48-.106-.558-1.65-2.234-5.081-3.298-7.369-1.197 2.42-2.367 4.868-3.378 7.369-.08.053-.266.106-.453.106-.186 0-.372-.027-.479-.106-.425-1.197-1.09-2.634-1.862-4.256l-5.134-10.88c-.558-1.198-.824-1.624-1.915-1.89l-.745-.186c-.186-.16-.16-.612.08-.745.957.054 2.075.08 3.218.08.958 0 1.969-.026 3.246-.08.213.133.24.586.08.745l-.665.16c-.346.08-.612.186-.612.426 0 .239.186.77.638 1.782l3.166 6.863c.931 2.022 1.596 3.405 1.862 3.83.559-1.063 1.144-2.314 1.782-3.697.187-.399.373-.851.373-1.01 0-.134-.08-.453-.24-.799l-2.793-5.905c-.505-1.064-.824-1.33-1.542-1.49l-.772-.16c-.186-.186-.16-.612.08-.745a56.964 56.964 0 0 0 6.038 0c.213.107.24.586.054.745l-.719.16c-.292.053-.452.186-.452.372 0 .16.053.453.24.878.585 1.33 1.197 2.687 1.808 3.884.453-.904.878-1.889 1.304-2.873.399-.93.585-1.596.585-1.835 0-.187-.16-.32-.532-.4l-.745-.186c-.186-.213-.133-.638.08-.745.718.054 1.463.08 2.474.08.931 0 1.57-.026 2.42-.08.267.133.267.612.054.772l-.665.133c-.984.186-1.25.505-2.101 2.075-.586 1.064-1.25 2.5-1.836 3.698-.133.292-.266.665-.266.744 0 .08.08.32.213.639l1.144 2.474c.558 1.197 1.25 2.82 1.49 3.272 1.356-3.166 2.793-6.677 4.202-10.056.453-1.09.825-2.128.825-2.474 0-.186-.479-.266-.904-.399l-.452-.133c-.24-.186-.24-.612.026-.745.984.054 1.809.08 2.713.08.905 0 1.73-.026 2.554-.08.213.133.266.506.08.745L141.6.94zM146.175 17.061c1.836 0 3.299-1.357 3.299-4.602 0-3.086-1.144-5.666-3.645-5.666-1.516 0-3.298 1.277-3.298 4.788 0 2.713 1.064 5.48 3.644 5.48m-6.863-4.921c0-3.592 2.74-6.358 6.783-6.358 4.39 0 6.597 2.873 6.597 6.038 0 3.672-2.713 6.252-6.597 6.252-4.336 0-6.783-2.66-6.783-5.932M159.21 14.348c0 .824.053 1.622.32 1.941.212.213.638.4 2.101.4 2.022 0 2.447-.133 3.246-2.049.212-.133.585-.106.745.107-.107.984-.453 2.367-.772 3.032a127.75 127.75 0 0 0-4.39-.08h-2.66a54.8 54.8 0 0 0-3.032.08c-.186-.106-.24-.612-.027-.771l.532-.053c.984-.107 1.064-.506 1.064-2.262V9.16c0-1.755-.08-2.101-1.064-2.234l-.612-.08c-.212-.16-.16-.665.027-.771 1.038.053 2.048.08 3.112.08 1.011 0 2.022-.027 2.98-.08.186.106.24.611.026.77l-.532.054c-.984.106-1.064.506-1.064 2.261v5.188zM164.238 6.846c-.133-.186-.106-.665.08-.771.878.053 1.836.08 2.953.08.905 0 1.809-.027 2.767-.08.186.132.239.665.026.771l-.505.106c-.373.08-.612.16-.612.293 0 .133.026.32.213.825.479 1.223 1.889 4.815 2.5 6.145.346-.745 1.783-4.23 2.262-5.48.292-.772.478-1.197.452-1.384-.027-.213-.266-.292-.665-.372l-.612-.133c-.186-.186-.16-.692.08-.771.824.053 1.463.08 2.314.08.772 0 1.463-.027 2.155-.08.213.132.213.611.053.771l-.585.106c-.745.133-1.144.506-1.916 2.208l-2.394 5.24c-.532 1.172-1.037 2.501-1.41 3.486-.186.106-.372.186-.612.186-.266 0-.452-.08-.611-.186a70.005 70.005 0 0 0-1.038-2.66c-.638-1.543-2.181-5.188-2.926-6.837-.425-.958-.638-1.25-1.383-1.41l-.586-.133zM182.674 10.703c0 .452.026.479.611.479h.985c1.463 0 1.702-.027 1.915-.825l.16-.638c.16-.16.611-.133.745.053-.027.612-.08 1.277-.08 1.942 0 .718.053 1.383.08 1.995-.134.186-.586.213-.745.053l-.16-.638c-.213-.798-.452-.825-1.915-.825h-.985c-.585 0-.611.027-.611.532v1.65c0 .798.053 1.516.292 1.808.24.267.851.4 2.5.4 2.155 0 2.608-.559 3.22-1.969.186-.08.558-.08.745.106-.24 1.118-.559 2.448-.799 2.953-1.676-.053-3.085-.08-4.522-.08h-2.846c-1.064 0-2.075.027-3.325.08-.187-.106-.24-.612-.027-.771l.825-.08c.984-.106 1.064-.479 1.064-2.235V9.16c0-1.755-.08-2.101-1.064-2.26l-.32-.054c-.212-.16-.16-.665.027-.772.745.054 1.756.08 2.82.08h4.283c1.17 0 2.234-.026 2.474-.08.08.32.212 1.57.292 2.767-.106.213-.558.24-.745.08-.16-.452-.319-.851-.478-1.118-.32-.532-1.011-.638-2.315-.638h-1.41c-.665 0-.691.08-.691 1.357v2.181zM198.954 6.26c.213.56.4 1.623.452 2.714-.16.24-.558.292-.745.107-.505-1.544-1.436-2.288-2.713-2.288-1.117 0-1.835.665-1.835 1.596 0 1.064.984 1.622 2.128 2.101 1.809.745 3.538 1.783 3.538 4.044.026 2.42-2.208 3.538-4.789 3.538-1.542 0-2.793-.373-3.511-.958-.4-.745-.532-1.888-.479-3.006.133-.213.559-.292.745-.053.479 1.623 1.676 3.006 3.458 3.006 1.064 0 1.862-.612 1.862-1.596 0-1.25-.93-1.995-2.208-2.527-1.702-.692-3.325-1.783-3.325-3.698 0-2.208 1.889-3.458 4.576-3.458 1.276 0 2.154.293 2.846.479"/></g></svg>